<svg width="100" height="100" viewBox="0 0 100 100" fill="none" xmlns="http://www.w3.org/2000/svg">
<g clip-path="url(#clip0_106_121)">
<path d="M93.75 16.5667H80.8917C80.0677 16.5668 79.2623 16.8113 78.5773 17.2691C77.8922 17.727 77.3583 18.3777 77.043 19.1389C76.7277 19.9002 76.6452 20.7378 76.8059 21.5459C76.9666 22.3541 77.3633 23.0964 77.9458 23.6792L82.4708 28.2042L67.5292 43.1417C66.7353 43.9004 65.6794 44.3238 64.5813 44.3238C63.4831 44.3238 62.4272 43.9004 61.6333 43.1417L60.925 42.4291C58.5442 40.1544 55.3782 38.8851 52.0854 38.8851C48.7926 38.8851 45.6266 40.1544 43.2458 42.4291L21.9958 63.6791C21.2129 64.4643 20.7739 65.5283 20.7755 66.6371C20.777 67.7459 21.219 68.8087 22.0042 69.5916C22.7893 70.3746 23.8533 70.8136 24.9621 70.812C26.071 70.8104 27.1337 70.3685 27.9167 69.5833L49.1667 48.3333C49.9601 47.5736 51.0161 47.1496 52.1146 47.1496C53.2131 47.1496 54.2691 47.5736 55.0625 48.3333L55.7708 49.0458C58.1526 51.3186 61.3183 52.5867 64.6104 52.5867C67.9026 52.5867 71.0683 51.3186 73.45 49.0458L88.3917 34.1042L92.9167 38.6292C93.5014 39.2023 94.2419 39.5904 95.0459 39.7452C95.8499 39.8999 96.6816 39.8144 97.4372 39.4992C98.1929 39.1841 98.8389 38.6533 99.2947 37.9732C99.7505 37.293 99.9958 36.4937 100 35.675V22.8166C100 21.159 99.3415 19.5693 98.1694 18.3972C96.9973 17.2251 95.4076 16.5667 93.75 16.5667Z" fill="#1E293B"/>
<path d="M95.8333 91.5667H20.8333C17.5181 91.5667 14.3387 90.2497 11.9945 87.9055C9.65029 85.5613 8.33333 82.3819 8.33333 79.0667V4.16667C8.33333 3.0616 7.89435 2.00179 7.11295 1.22039C6.33154 0.438987 5.27174 0 4.16667 0C3.0616 0 2.00179 0.438987 1.22039 1.22039C0.438987 2.00179 0 3.0616 0 4.16667L0 79.0667C0.00661607 84.59 2.20367 89.8852 6.10925 93.7908C10.0148 97.6963 15.31 99.8934 20.8333 99.9H95.8333C96.9384 99.9 97.9982 99.461 98.7796 98.6796C99.561 97.8982 100 96.8384 100 95.7333C100 94.6283 99.561 93.5685 98.7796 92.7871C97.9982 92.0057 96.9384 91.5667 95.8333 91.5667Z" fill="#1E293B"/>
</g>
<defs>
<clipPath id="clip0_106_121">
<rect width="100" height="100" fill="white"/>
</clipPath>
</defs>
</svg>
