<svg width="100" height="100" viewBox="0 0 100 100" fill="none" xmlns="http://www.w3.org/2000/svg">
<g clip-path="url(#clip0_93_33)">
<path d="M58.4125 20.0416C62.125 16.5541 67.9292 15.6999 72.4708 17.9791L86.5167 25.0041H100V16.6708H88.4833L76.2 10.5249C68.6 6.72075 58.8958 8.13325 52.6958 13.9749L50.1208 16.3999L47.2042 13.7416C43.375 10.2541 38.4167 8.33325 33.0792 8.33325C29.8667 8.33325 26.6625 9.09159 23.8 10.5208L11.5125 16.6666H0V24.9999H13.4833L27.5333 17.9749C31.7917 15.8333 37.775 16.4124 41.5917 19.8999L44.0375 22.1291L33.0125 32.5124C28.5417 36.9791 27.8292 44.0416 31.3542 48.9207C33.5208 51.9333 37.1833 54.1666 41.5375 54.1666C44.8417 54.1666 48.0125 52.8666 50.3042 50.5708L54.4958 46.5583L80.925 66.3791L50 89.5041L13.8875 62.4999H0V70.8332H11.1125L50 99.9124L88.8875 70.8332H100V62.4999H89.6375L60.5958 40.7207L67.6292 33.9874L61.8667 27.9666L44.4792 44.6124C43.6125 45.4791 42.4333 45.9249 41.1958 45.8208C39.9542 45.7207 38.8625 45.0916 38.1167 44.0499C36.975 42.4666 37.325 39.9874 38.8167 38.4916L58.4125 20.0416Z" fill="#1E293B"/>
</g>
<defs>
<clipPath id="clip0_93_33">
<rect width="100" height="100" fill="white"/>
</clipPath>
</defs>
</svg>
