<svg width="20" height="20" viewBox="0 0 20 20" fill="none" xmlns="http://www.w3.org/2000/svg">
<g clip-path="url(#clip0_106_155)">
<path fill-rule="evenodd" clip-rule="evenodd" d="M17.0525 2.90667C15.1808 1.03333 12.6925 0.000833333 10.0417 0C4.57917 0 0.133334 4.445 0.130834 9.91C0.130001 11.6567 0.586667 13.3617 1.45417 14.865L0.0475006 20L5.30083 18.6217C6.74833 19.4117 8.37833 19.8275 10.0367 19.8283H10.0408C15.5025 19.8283 19.9492 15.3825 19.9517 9.9175C19.9533 7.27 18.9233 4.77917 17.0525 2.90667ZM10.0417 18.1542H10.0383C8.56 18.1542 7.11083 17.7567 5.84583 17.0058L5.545 16.8275L2.4275 17.645L3.26 14.605L3.06417 14.2933C2.23917 12.9817 1.80417 11.4658 1.805 9.91C1.80667 5.36833 5.5025 1.67333 10.0458 1.67333C12.2458 1.67333 14.3142 2.53167 15.8692 4.08833C17.4242 5.64583 18.28 7.715 18.2792 9.91583C18.2767 14.4592 14.5817 18.1542 10.0417 18.1542ZM14.56 11.985C14.3125 11.8608 13.095 11.2617 12.8675 11.1792C12.6408 11.0967 12.4758 11.055 12.31 11.3025C12.1442 11.55 11.6708 12.1083 11.5258 12.2742C11.3817 12.4392 11.2367 12.46 10.9892 12.3358C10.7417 12.2117 9.94333 11.9508 8.9975 11.1067C8.26167 10.45 7.76417 9.63917 7.62 9.39083C7.47583 9.1425 7.605 9.00917 7.72833 8.88583C7.84 8.775 7.97583 8.59667 8.1 8.45167C8.225 8.30833 8.26583 8.205 8.34917 8.03917C8.43167 7.87417 8.39083 7.72917 8.32833 7.605C8.26583 7.48167 7.77083 6.2625 7.565 5.76667C7.36417 5.28333 7.16 5.34917 7.0075 5.34167C6.86334 5.33417 6.69833 5.33333 6.5325 5.33333C6.3675 5.33333 6.09917 5.395 5.8725 5.64333C5.64583 5.89167 5.00583 6.49083 5.00583 7.70917C5.00583 8.92833 5.89333 10.1058 6.01667 10.2708C6.14 10.4358 7.7625 12.9375 10.2467 14.01C10.8375 14.265 11.2992 14.4175 11.6583 14.5317C12.2517 14.72 12.7917 14.6933 13.2183 14.63C13.6942 14.5592 14.6833 14.0308 14.89 13.4525C15.0967 12.8742 15.0967 12.3775 15.0342 12.275C14.9725 12.1708 14.8075 12.1092 14.56 11.985Z" fill="#F7F3F3"/>
</g>
<defs>
<clipPath id="clip0_106_155">
<rect width="20" height="20" fill="white"/>
</clipPath>
</defs>
</svg>
