<svg width="100" height="100" viewBox="0 0 100 100" fill="none" xmlns="http://www.w3.org/2000/svg">
<path d="M82.6757 50.096C82.6757 27.4248 64.1425 9.00011 41.3378 9.00011C18.5331 9.00011 0 27.4248 0 50.096C0 72.7672 18.5331 91.1919 41.3378 91.1919C43.8526 91.1919 46.4017 90.9522 48.8475 90.507C50.7078 90.1645 51.9479 88.3837 51.6034 86.5344C51.2589 84.685 49.4676 83.4522 47.6074 83.7946C45.575 84.1713 43.4392 84.3426 41.3378 84.3426C22.3569 84.3426 6.88964 68.9659 6.88964 50.096C6.88964 31.2261 22.3569 15.8494 41.3378 15.8494C60.3188 15.8494 75.786 31.2261 75.786 50.096C75.786 52.185 75.5794 54.2741 75.2349 56.3289C74.8904 58.1782 76.1305 59.959 77.9907 60.3015C79.8854 60.6439 81.6422 59.4111 81.9867 57.5618C82.4345 55.1303 82.6757 52.596 82.6757 50.096ZM44.3004 70.4385C46.195 70.1645 47.9174 71.4659 48.193 73.3494C48.4686 75.233 47.1596 76.9453 45.2649 77.2193C43.9559 77.3905 42.6469 77.4933 41.3378 77.4933C26.1462 77.4933 13.7793 65.1987 13.7793 50.096C13.7793 34.9933 26.1462 22.6987 41.3378 22.6987C56.5295 22.6987 68.8964 34.9933 68.8964 50.096C68.8964 51.3974 68.7931 52.6987 68.6208 54.0001C68.3452 55.8837 66.6228 57.185 64.7282 56.9111C62.8335 56.6371 61.5245 54.9248 61.8001 53.0412C61.9379 52.0823 62.0068 51.0892 62.0068 50.096C62.0068 38.7604 52.7402 29.5481 41.3378 29.5481C29.9355 29.5481 20.6689 38.7604 20.6689 50.096C20.6689 61.4316 29.9355 70.6439 41.3378 70.6439C42.3368 70.6439 43.3358 70.5755 44.3004 70.4385ZM36.7562 55.1987C38.1686 56.4659 38.3064 58.6234 37.0318 60.0275C35.7572 61.4316 33.587 61.5686 32.1746 60.3015C29.2465 57.6987 27.593 53.9659 27.593 50.096C27.593 42.5275 33.7592 36.3974 41.3723 36.3974C45.2994 36.3974 49.0198 38.0755 51.6379 40.9522C52.9124 42.3563 52.7746 44.5138 51.3623 45.7809C49.9499 47.0481 47.7797 46.9111 46.5051 45.507C45.196 44.0686 43.3358 43.2124 41.3723 43.2124C37.583 43.2124 34.4826 46.2946 34.4826 50.0618C34.4826 52.0138 35.3094 53.8631 36.7907 55.1645L36.7562 55.1987ZM42.3713 55.9522C41.0278 54.6166 41.0278 52.459 42.3713 51.1234C43.0602 50.4385 43.9215 50.1302 44.8171 50.1302C45.7128 50.1302 46.574 50.4727 47.2629 51.1234L63.488 67.2535H72.4101C73.3402 67.2535 74.2014 67.6303 74.8559 68.2467L81.7456 75.096C82.7446 76.0892 83.0202 77.5618 82.5034 78.8289C81.9867 80.096 80.7121 80.9522 79.3342 80.9522H72.4446V87.7672C72.4446 89.1371 71.6178 90.4042 70.3088 90.9179C68.9997 91.4659 67.5529 91.1576 66.5539 90.1645L59.6643 83.3152C59.0098 82.6645 58.6653 81.8083 58.6653 80.8837V72.0138L42.4402 55.8837L42.3713 55.9522Z" fill="#1E293B"/>
</svg>
