<svg width="20" height="20" viewBox="0 0 20 20" fill="none" xmlns="http://www.w3.org/2000/svg">
<g clip-path="url(#clip0_106_152)">
<path d="M19.9617 4.61841L12.9467 11.6334C12.1645 12.4136 11.1048 12.8518 10 12.8518C8.89521 12.8518 7.83552 12.4136 7.05333 11.6334L0.0383333 4.61841C0.0266667 4.75007 0 4.86924 0 5.00008V15.0001C0.00132321 16.1047 0.440735 17.1638 1.22185 17.9449C2.00296 18.726 3.062 19.1654 4.16667 19.1667H15.8333C16.938 19.1654 17.997 18.726 18.7782 17.9449C19.5593 17.1638 19.9987 16.1047 20 15.0001V5.00008C20 4.86924 19.9733 4.75007 19.9617 4.61841Z" fill="#F7F3F3"/>
<path d="M11.7683 10.4549L19.38 2.84242C19.0113 2.23102 18.4912 1.72495 17.87 1.37303C17.2487 1.0211 16.5473 0.835203 15.8333 0.833252H4.16666C3.45268 0.835203 2.75125 1.0211 2.13002 1.37303C1.50879 1.72495 0.988727 2.23102 0.619995 2.84242L8.23166 10.4549C8.7013 10.9227 9.33715 11.1853 10 11.1853C10.6628 11.1853 11.2987 10.9227 11.7683 10.4549Z" fill="#F7F3F3"/>
</g>
<defs>
<clipPath id="clip0_106_152">
<rect width="20" height="20" fill="white"/>
</clipPath>
</defs>
</svg>
