<svg width="20" height="20" viewBox="0 0 20 20" fill="none" xmlns="http://www.w3.org/2000/svg">
<g clip-path="url(#clip0_106_166)">
<path d="M19.1683 17.9866H19.3575L18.995 17.4383C19.2167 17.4383 19.3342 17.2974 19.3358 17.1249C19.3358 17.1183 19.3358 17.1108 19.335 17.1041C19.335 16.8691 19.1933 16.7566 18.9025 16.7566H18.4325V17.9866H18.6092V17.4508H18.8267L19.1683 17.9866ZM18.8142 17.3116H18.6092V16.8958H18.8692C19.0033 16.8958 19.1567 16.9174 19.1567 17.0933C19.1567 17.2949 19.0025 17.3116 18.8142 17.3116Z" fill="#F7F3F3"/>
<path d="M14.4092 15.8941H11.9033V11.97C11.9033 11.0341 11.8867 9.82998 10.6 9.82998C9.295 9.82998 9.095 10.8491 9.095 11.9025V15.8941H6.59V7.82414H8.99583V8.92664H9.02917C9.52 8.08831 10.4317 7.58748 11.4025 7.62331C13.9425 7.62331 14.41 9.29414 14.41 11.4666L14.4092 15.8941ZM3.7625 6.72081C2.95917 6.72081 2.30833 6.06998 2.30833 5.26664C2.30833 4.46331 2.95917 3.81248 3.7625 3.81248C4.56583 3.81248 5.21667 4.46331 5.21667 5.26664C5.21667 6.06998 4.56583 6.72081 3.7625 6.72081ZM5.015 15.8941H2.50667V7.82414H5.015V15.8941ZM15.6583 1.48581H1.2475C0.566667 1.47831 0.00833333 2.02414 0 2.70498V17.175C0.00833333 17.8566 0.566667 18.4025 1.2475 18.395H15.6583C16.3408 18.4033 16.9017 17.8575 16.9108 17.175V2.70414C16.9008 2.02164 16.34 1.47581 15.6583 1.48498" fill="#F7F3F3"/>
<path d="M18.8358 16.2092C18.1992 16.2151 17.6875 16.7367 17.6942 17.3734C17.7 18.0101 18.2217 18.5217 18.8583 18.5151C19.495 18.5092 20.0067 17.9876 20 17.3509C19.9942 16.7226 19.4858 16.2151 18.8583 16.2092H18.8358ZM18.8625 18.3826C18.3042 18.3917 17.8175 17.9476 17.8083 17.3892C17.7992 16.8309 18.2442 16.3709 18.8025 16.3617C19.3608 16.3526 19.8208 16.7976 19.83 17.3559C19.83 17.3617 19.83 17.3667 19.83 17.3726C19.8417 17.9184 19.4083 18.3709 18.8625 18.3826H18.8367H18.8625Z" fill="#F7F3F3"/>
</g>
<defs>
<clipPath id="clip0_106_166">
<rect width="20" height="20" fill="white"/>
</clipPath>
</defs>
</svg>
